<?xml version="1.0" encoding="iso-8859-1"?>
<!-- Generator: Adobe Illustrator 23.0.0, SVG Export Plug-In . SVG Version: 6.00 Build 0)  -->
<svg version="1.1" id="Calque_1" xmlns="http://www.w3.org/2000/svg" xmlns:xlink="http://www.w3.org/1999/xlink" x="0px" y="0px"
	 viewBox="0 0 595.276 841.89" style="enable-background:new 0 0 595.276 841.89;" xml:space="preserve">
<path style="fill:#121821;" d="M180.76,405.16h-20.64V487h20.64V405.16z M251.346,410.44c-13.08-5.64-21.24-6.36-27.72-6.36
	c-20.52,0-30.96,10.8-30.96,23.28c0,17.28,14.88,23.04,26.64,27.12c10.8,3.72,15.48,5.4,15.48,10.8c0,7.32-9.6,7.44-12.24,7.44
	c-12,0-21.36-5.76-28.44-10.2v17.64c2.04,1.44,15.12,7.92,28.92,7.92c12.24,0,32.04-5.28,32.04-24.24
	c0-15.84-12.24-22.08-22.56-25.8c-11.76-4.2-19.8-7.08-19.8-12c0-0.84,0.36-6.72,12.36-6.72c10.44,0,20.64,5.16,26.28,7.92
	L251.346,410.44L251.346,410.44z M340.334,405.16h-79.92v15.36h29.64V487h20.76v-66.48h29.52V405.16z"/>
<path style="fill:#121821;" d="M216.48,376h-39.72v-19.68h37.08v-15.36h-37.08V324.4h38.88v-15.24h-59.52V391h60.36V376z
	 M297.218,309.16h-21.96l-20.52,46.68l-21.6-46.68h-22.201l39.6,82.92h8.88L297.218,309.16z M330.82,309.16h-23.64l-33,81.84h21.6
	l6.12-16.2h36.6l6.72,16.2h21.96L330.82,309.16z M332.5,360.52h-25.2l12-31.68L332.5,360.52z M364.69,309.16V391h20.64v-33.36h3
	c5.76,0,9.84,0,15.36,10.32c1.68,3.24,8.76,19.44,10.56,23.04h22.44l-2.76-5.88c-2.16-4.68-5.64-12.36-7.92-17.04
	c-1.8-4.2-5.88-12.48-11.76-15.36c3.48-1.68,14.04-6.48,14.04-20.16c0-9.72-6.36-16.44-10.68-19.32c-6.6-4.08-14.04-4.08-21.48-4.08
	L364.69,309.16L364.69,309.16z M395.65,324.04c2.28,0,11.4,0,11.4,9.36c0,3.36-1.44,6.36-4.44,7.92c-2.16,1.2-3.48,1.2-8.76,1.44
	h-8.52v-18.72H395.65z"/>
<rect x="126" y="221" style="fill:none;stroke:#121821;stroke-width:10;" width="344" height="344"/>
<path style="fill:#121821;" d="M141.416,578.744c-1.76-0.768-4.192-1.856-7.488-1.856c-6.912,0-11.712,4.896-11.712,11.136
	c0,6.88,5.76,11.264,11.392,11.264c2.816,0,5.632-0.672,8.224-1.856v-8.384h-6.304v1.44h4.608v5.888
	c-2.112,0.832-4.32,1.376-6.592,1.376c-4.704,0-9.44-3.648-9.44-9.632c0-6.144,4.736-9.632,9.504-9.632
	c2.752,0,5.472,0.704,7.808,2.176V578.744z M150.798,577.176V599h1.696v-10.464h2.336c1.6,0,2.656,0,3.616,0.672
	c0.864,0.608,2.016,2.144,2.688,3.2l4.192,6.592h2.016l-1.024-1.504c-5.024-7.712-5.6-8.576-6.848-9.376
	c2.624-0.96,4.16-2.656,4.16-5.312c0-2.464-1.568-4.288-3.296-4.992c-1.408-0.544-2.688-0.64-5.216-0.64L150.798,577.176
	L150.798,577.176z M155.245,578.584c2.72,0,3.744,0.352,4.448,0.704c1.216,0.608,2.016,2.016,2.016,3.52s-0.8,3.008-1.984,3.584
	c-1.184,0.576-2.4,0.704-4.896,0.704h-2.336v-8.512L155.245,578.584L155.245,578.584z M182.955,577.016h-0.992L171.947,599h1.76
	l3.456-7.552h10.656l3.456,7.552h1.76L182.955,577.016z M187.147,590.008h-9.376l4.704-10.24L187.147,590.008z M200.522,577.176V599
	h1.664v-10.208h2.976c2.432,0,3.776-0.032,5.632-0.896c1.632-0.8,2.816-2.72,2.816-4.992c0-2.208-1.056-3.872-2.72-4.8
	c-1.536-0.864-2.88-0.928-5.952-0.928H200.522z M205.003,578.552c3.072,0,4.192,0.352,5.12,0.992c1.024,0.736,1.6,2.08,1.6,3.424
	s-0.576,2.816-1.568,3.456c-1.312,0.832-2.752,0.96-4.896,0.96h-3.072v-8.832L205.003,578.552L205.003,578.552z M239.399,577.176
	h-1.696v10.048h-14.592v-10.048h-1.664V599h1.664v-10.336h14.592V599h1.696V577.176z M251.038,577.176h-1.728V599h1.728V577.176z
	 M278.746,578.712c-2.432-1.12-5.056-1.824-7.744-1.824c-5.056,0-11.392,3.776-11.392,11.232c0,7.008,5.632,11.168,11.616,11.168
	c1.152,0,4.192-0.16,7.744-2.048v-1.76c-1.28,0.64-4.224,2.176-7.744,2.176c-5.6,0-9.696-3.904-9.696-9.568
	c0-5.568,3.968-9.6,9.792-9.6c3.328,0,5.728,1.216,7.424,2.08V578.712z M300.241,577.176V599h6.624c3.2,0,4.96,0,7.808-1.504
	c3.648-1.92,5.12-6.144,5.12-9.504c0-3.84-1.728-7.392-5.12-9.344c-2.592-1.472-4.608-1.472-7.808-1.472L300.241,577.176
	L300.241,577.176z M307.057,578.584c2.816,0,4.416,0.096,6.656,1.536c3.264,2.08,4.192,5.376,4.192,7.904
	c0,3.328-1.568,6.56-4.192,8.096c-2.496,1.44-4.192,1.504-6.656,1.504h-5.12v-19.04L307.057,578.584L307.057,578.584z
	 M340.258,577.176h-11.904V599h12.16v-1.376H330.05v-8.928h9.952v-1.408h-9.952v-8.704h10.208V577.176z M359.424,578.264
	c-1.568-0.864-3.296-1.376-5.088-1.376c-3.712,0-6.176,2.848-6.176,5.76c0,1.728,0.832,3.168,1.984,4.16
	c0.48,0.416,1.056,0.896,3.936,1.888c1.728,0.576,4.48,1.696,4.48,4.64c0,1.984-1.504,4.352-4.64,4.352
	c-2.016,0-3.648-0.96-5.536-2.304v1.984c1.664,1.12,3.584,1.92,5.6,1.92c3.04,0,6.336-2.176,6.336-6.016
	c0-3.84-2.976-5.28-5.568-6.208c-2.4-0.832-4.864-1.696-4.864-4.48c0-1.856,1.472-4.192,4.608-4.192
	c1.824,0,3.168,0.704,4.928,1.728V578.264z M370.463,577.176h-1.728V599h1.728V577.176z M398.235,578.744
	c-1.76-0.768-4.192-1.856-7.488-1.856c-6.912,0-11.712,4.896-11.712,11.136c0,6.88,5.76,11.264,11.392,11.264
	c2.816,0,5.632-0.672,8.224-1.856v-8.384h-6.304v1.44h4.608v5.888c-2.112,0.832-4.32,1.376-6.592,1.376
	c-4.704,0-9.44-3.648-9.44-9.632c0-6.144,4.736-9.632,9.504-9.632c2.752,0,5.472,0.704,7.808,2.176V578.744z M427.296,577.176H425.6
	v19.072l-16.416-19.072h-1.568V599h1.696v-19.2l16.576,19.2h1.408L427.296,577.176L427.296,577.176z M449.133,577.176h-11.904V599
	h12.16v-1.376h-10.464v-8.928h9.952v-1.408h-9.952v-8.704h10.208L449.133,577.176L449.133,577.176z M458.091,577.176V599h1.696
	v-10.464h2.336c1.6,0,2.656,0,3.616,0.672c0.864,0.608,2.016,2.144,2.688,3.2l4.192,6.592h2.016l-1.024-1.504
	c-5.024-7.712-5.6-8.576-6.848-9.376c2.624-0.96,4.16-2.656,4.16-5.312c0-2.464-1.568-4.288-3.296-4.992
	c-1.408-0.544-2.688-0.64-5.216-0.64L458.091,577.176L458.091,577.176z M462.539,578.584c2.72,0,3.744,0.352,4.448,0.704
	c1.216,0.608,2.016,2.016,2.016,3.52s-0.8,3.008-1.984,3.584c-1.184,0.576-2.4,0.704-4.896,0.704h-2.336v-8.512L462.539,578.584
	L462.539,578.584z"/>
<path style="fill:#CC1236;" d="M124.56,605.176V627h1.664v-10.208h2.976c2.432,0,3.776-0.032,5.632-0.896
	c1.632-0.8,2.816-2.72,2.816-4.992c0-2.208-1.056-3.872-2.72-4.8c-1.536-0.864-2.88-0.928-5.952-0.928H124.56z M129.04,606.552
	c3.072,0,4.192,0.352,5.12,0.992c1.024,0.736,1.6,2.08,1.6,3.424s-0.576,2.816-1.568,3.456c-1.312,0.832-2.752,0.96-4.896,0.96
	h-3.072v-8.832L129.04,606.552L129.04,606.552z M171.437,605.176h-1.696v10.048h-14.592v-10.048h-1.664V627h1.664v-10.336h14.592
	V627h1.696V605.176z M211.139,615.992c0-5.888-4.608-11.104-11.552-11.104c-7.008,0-11.584,5.248-11.584,11.168
	c0,6.272,5.024,11.232,11.552,11.232C205.892,627.288,211.139,622.552,211.139,615.992z M209.251,615.992
	c0,5.952-4.704,9.696-9.728,9.696c-5.6,0-9.6-4.416-9.6-9.568c0-5.344,4.128-9.6,9.696-9.6
	C205.315,606.52,209.251,611,209.251,615.992z M241.264,605.176h-18.08v1.408h8.192V627h1.728v-20.416h8.16V605.176z
	 M276.458,615.992c0-5.888-4.608-11.104-11.552-11.104c-7.008,0-11.584,5.248-11.584,11.168c0,6.272,5.024,11.232,11.552,11.232
	C271.21,627.288,276.458,622.552,276.458,615.992z M274.57,615.992c0,5.952-4.704,9.696-9.728,9.696c-5.6,0-9.6-4.416-9.6-9.568
	c0-5.344,4.128-9.6,9.696-9.6C270.634,606.52,274.57,611,274.57,615.992z M310.885,606.744c-1.76-0.768-4.192-1.856-7.488-1.856
	c-6.912,0-11.712,4.896-11.712,11.136c0,6.88,5.76,11.264,11.392,11.264c2.816,0,5.632-0.672,8.224-1.856v-8.384h-6.304v1.44h4.608
	v5.888c-2.112,0.832-4.32,1.376-6.592,1.376c-4.704,0-9.44-3.648-9.44-9.632c0-6.144,4.736-9.632,9.504-9.632
	c2.752,0,5.472,0.704,7.808,2.176V606.744z M328.266,605.176V627h1.696v-10.464h2.336c1.6,0,2.656,0,3.616,0.672
	c0.864,0.608,2.016,2.144,2.688,3.2l4.192,6.592h2.016l-1.024-1.504c-5.024-7.712-5.6-8.576-6.848-9.376
	c2.624-0.96,4.16-2.656,4.16-5.312c0-2.464-1.568-4.288-3.296-4.992c-1.408-0.544-2.688-0.64-5.216-0.64L328.266,605.176
	L328.266,605.176z M332.714,606.584c2.72,0,3.744,0.352,4.448,0.704c1.216,0.608,2.016,2.016,2.016,3.52s-0.8,3.008-1.984,3.584
	s-2.4,0.704-4.896,0.704h-2.336v-8.512L332.714,606.584L332.714,606.584z M368.424,605.016h-0.992L357.416,627h1.76l3.456-7.552
	h10.656l3.456,7.552h1.76L368.424,605.016z M372.616,618.008h-9.376l4.704-10.24L372.616,618.008z M393.991,605.176V627h1.664
	v-10.208h2.976c2.432,0,3.776-0.032,5.632-0.896c1.632-0.8,2.816-2.72,2.816-4.992c0-2.208-1.056-3.872-2.72-4.8
	c-1.536-0.864-2.88-0.928-5.952-0.928H393.991z M398.471,606.552c3.072,0,4.192,0.352,5.12,0.992c1.024,0.736,1.6,2.08,1.6,3.424
	s-0.576,2.816-1.568,3.456c-1.312,0.832-2.752,0.96-4.896,0.96h-3.072v-8.832L398.471,606.552L398.471,606.552z M440.868,605.176
	h-1.696v10.048H424.58v-10.048h-1.664V627h1.664v-10.336h14.592V627h1.696V605.176z M470.683,605.176h-11.904V627h12.16v-1.376
	h-10.464v-8.928h9.952v-1.408h-9.952v-8.704h10.208L470.683,605.176L470.683,605.176z"/>
<path style="fill:#CC1236;" d="M398.354,402.04c-2.343,0.631-5.521,1.073-8.603,1.78c-1.559,0.352-3.089,0.685-4.482,1.148
	l-2.075,0.589c-0.625,0.211-1.183,0.459-1.698,0.661c-3.83,1.241-7.359,3.286-10.353,5.998c-3.18,2.787-5.993,5.97-8.371,9.471
	l-0.263-0.307c-0.55,0.605-1.115,1.236-1.642,1.923c-0.527,0.688-0.977,1.454-1.447,2.227c-0.946,1.606-1.768,3.282-2.46,5.014
	c-1.278,3.502-2.157,7.136-2.619,10.831l0.575-0.309c0.265-1.151,0.528-2.638,1.066-1.614c-0.358,1.347-0.845,2.656-1.454,3.91
	l0.676,1.243c-0.263,0.467-0.782,0.491-1.217,0.738c-0.436,0.247-0.824,0.749-0.504,2.161c0.965,0.824,0.57,2.36,0.494,3.794
	c-0.077,1.434-0.116,2.678,1.028,2.567c-0.601,0.663-0.369,1.55-0.085,2.501c0.283,0.951,0.736,1.787,0.992,2.476l0.669-1.187
	c0.105,1.385,0.136,2.776,0.092,4.166c-0.017,1.012,0.193,2.014,0.614,2.931c1.87,3.68,4.387,6.987,7.431,9.762
	c-0.31,1.478-2.636-3.086-1.949-0.377c1.691,1.147,3.306,2.404,4.834,3.762c1.681,1.317,3.322,2.857,5.228,4.178
	c3.69,2.91,8.089,4.783,12.75,5.428c-0.252-0.142-0.94-0.529-0.368-0.524c0.862,0.611,1.889,0.945,2.947,0.958
	c1.325,0.087,2.645,0.244,3.953,0.47c-0.19-0.406-1.217-0.686-2.363-0.91l-3.059-0.757c0.611-0.869,0.74-0.726,1.211-0.355
	c0.415,0.348,0.903,0.6,1.427,0.738c0.525,0.138,1.074,0.158,1.609,0.059c-0.238-0.134-0.701-0.395-0.665-0.551
	c3.519-0.214,1.303,1.368,4.079,1.051c-0.517-0.176-1.02-0.389-1.506-0.638c2.645,0.102,0.879-0.26,3.807-0.755
	c-0.397,1.077,1.142,1.839,1.961,1.809c0.294-0.521,3.259-0.555,2.723-1.49c0.677,0.256,1.4,0.367,2.125,0.327
	c0.724-0.039,1.433-0.229,2.083-0.557c1.241-0.704,2.694-0.924,4.08-0.62c0.547-0.693,0.109-0.782-0.463-0.788
	c-0.572-0.005-1.327-0.027-1.388-0.413c3.052-1.796,1.421,0.572,2.793,0.396c2.169-1.549,4.521-2.823,7-3.791l-0.31-0.719
	c0.821-0.321,1.617-0.701,2.384-1.136l2.465-1.529c1.124-0.897,2.383-1.606,3.729-2.101c0.064-1.722-1.609,0.166-3.224,1.7
	c-0.689-0.107,0.628-1.95,1.459-2.589c-0.388,0.379-0.86,0.166-1.013,0.871c-0.609-0.343,0.779-1.197,0.993-1.762
	c1.348-1.279,1.156-1.001,0.886-0.397c-0.271,0.604-0.845,1.282-0.157,0.896c0.787-1.209,3.023-3.94,1.337-3.361
	c0.937-1.23,1.247-1.284,1.596-1.192c0.35,0.091,0.622,0.35,1.215-0.177c-0.681,0.61-1.212,1.371-1.548,2.222
	c-0.119,0.374-0.313,0.72-0.571,1.017c-0.257,0.296-0.572,0.537-0.924,0.707c-0.106,0.714,0.26,0.745,0.991,0.313
	c1.534-2.072,4.837-5.89,3.865-6.332c0.423-0.254,0.813-0.544,1.222-0.806l-0.105-1.483l0.422-0.378
	c-0.814,0.402-1.574,0.908-2.26,1.505c-0.627,0.545-1.365,0.945-2.161,1.173c-0.538-0.128,0.538-1.262,0.804-2.044l1.077-0.149
	c0.204-0.294,0.334-0.632,0.379-0.987c0.045-0.355,0.004-0.714-0.121-1.048c-0.187-0.866-0.031-1.775,0.435-2.533
	c0.393,2.086,2.8-2.308,4.004-4.196c-1.38-2.624-1.541-0.112-2.808-2.286c0.183-1.005,0.333-2.292,0.438-3.622
	c0.025-1.338,0.192-2.67,0.497-3.974c-0.122,2.937,0.207,2.261,0.73,1.395c0.523-0.865,1.083-1.921,1.277,0.58
	c0.156-1.002,0.141-2.021-0.044-3.014c1.546-0.887,1.264,1.591,2.42,0.098l-1.073-0.447c0.421-0.747,0.82-1.454,1.278-2.268
	c0.477-1.057,0.735-2.198,0.758-3.354c-0.441-0.392-0.796-0.871-1.045-1.408c-0.249-0.536-0.387-1.119-0.404-1.712
	c0.618-0.601,1.004-0.946,0.119-3.766c-1.844-2.358-2.02-0.716-1.988,1.517c0.036,1.183-0.008,2.368-0.134,3.546
	c0.023,0.846-0.253,1.675-0.779,2.34c0.111,1.37-0.057,2.752-0.494,4.059c-0.438,1.307-1.135,2.514-2.049,3.545
	c-0.801,0.966-1.538,1.984-2.206,3.047c-0.406,0.626-0.773,1.277-1.098,1.948c-0.195,0.347-0.399,0.707-0.517,1.133
	s-0.443,0.788-0.584,1.253c0.149,0.664,0.298,0.925,0.367,1.297c0.105,0.679,0.043,1.374-0.182,2.025
	c0.494,1.07,1.157,0.389,1.85-0.715c0.515-1.229,1.171-2.393,1.955-3.47c0.1,0.379,0.124,0.774,0.069,1.163
	c-0.054,0.389-0.186,0.764-0.387,1.102l1.349-0.506c-0.633,4.215-2.309,1.653-3.068,5.164l0.031-0.827
	c-0.121,0.674-0.282,1.341-0.481,1.997l0.392-0.324c-0.491,1.148,0.096,1.901-1.178,3.451l0.051-1.73
	c-0.011,1.225-1.273,0.865-1.806,2.306c0.064-0.949-0.257-1.429-0.049-1.892c-1.605,1.61-2.722,3.16-4.041,4.509
	c-3.528,5.238-8.968,8.873-15.129,10.111c0.261,0.05,0.527,0.076,0.793,0.078c-0.35,0.262-0.767,0.418-1.202,0.447
	c-0.434,0.03-0.867-0.067-1.246-0.28l-1.639,0.219l-1.657,0.033c-0.561,0.159-1.089,0.354-1.634,0.486l-1.632,0.329
	c-1.236,0.217-2.493,0.276-3.742,0.176c-0.133-0.568,0.055-0.778,0.451-0.801c-1.002,0.139-1.654,0.369-0.636,0.943
	c-1.819,0.135-2.564-0.584-3.846-0.691c1.015-0.254,2.075-0.589,2.992-0.793c-1.179-0.506-1.233,0.765-2.853,0.238
	c-1.305-0.067-1.076,0.238-0.539,0.646s1.415,0.798,1.186,1.266c-0.368-0.054-0.732-0.13-1.091-0.228
	c0.329,0.467,0.696,0.867,1.022,1.279c-1.011-0.201-1.96-0.633-2.774-1.264c-0.567-0.425-1.078-0.92-1.522-1.474
	c0.513,0.281,1.043,0.527,1.589,0.738c0.434-0.617-0.266-0.765-1.125-0.88s-1.907-0.39-2.161-0.867l0.247-0.036
	c-2.482-0.731,0.351,0.83-1.417,0.502l-2.486-2.175l0.072,0.955c-1.235-0.311-2.362-0.947-3.267-1.842
	c-0.588-0.472-1.128-1.092-1.699-1.625s-1.15-1.053-1.653-1.583c-0.714-0.634-1.487-1.199-2.308-1.687
	c-0.921-0.573-1.789-1.227-2.594-1.955c0.092,0.456,0.543,1.203,0.154,1.212c-0.887-0.992-2.674-3.265-1.326-2.998
	c-0.578-0.317-1.137-0.667-1.674-1.049c-0.33-0.445-0.546-0.965-0.628-1.515l-0.048,0.642c-0.496-0.549-0.964-1.124-1.4-1.722
	c0.181-0.073,0.141-0.993,0.74-0.075c-0.099-0.662-0.337-1.294-0.699-1.853c-0.345-0.664-0.737-1.302-1.172-1.909
	c-0.481-0.685-0.892-1.417-1.226-2.186c-0.419-0.838-0.68-1.749-0.77-2.685l0.702,1.012c-1.163-2.08,0.172-2.594-0.705-4.934
	l-0.542,0.591c-0.309-1.051-0.329-2.168-0.06-3.234c0.211-1.024,0.542-1.734,0.835-1.481c-1.771-0.26,0.549-0.974-0.895-2.123
	c0.556-0.337,1.097-0.647,1.651-0.95c-0.334-1.138-0.354-2.31-1.287-1.675c0.448-0.714,0.781-1.493,0.988-2.309
	c0.099-0.334,0.13-0.684,0.091-1.03c-0.039-0.345-0.147-0.678-0.318-0.98c-0.065-0.441,0.845-2.055-0.116-1.525
	c1.543-4.036,2.188-1.562,3.828-5.121l-0.923-0.714c0.864-1.268,1.619-2.607,2.257-4.003c0.361-0.64,0.659-1.387,0.904-2.005
	l0.992-1.761l0.887,0.499c0.406-0.72,0.26-0.802,0.107-0.994s-0.231-0.518,0.66-1.387c0.394-0.112,0.849-0.084,0.959,0.154
	c2.489-1.973,5.272-3.538,8.244-4.637c0.051,0.187-0.309,0.547-0.429,0.76c0.707-0.357,1.585-0.864,2.549-1.429l2.648-1.76
	c4.61,0.295,10.294,1.002,15.495,1.701c4.383-1.591,8.42-2.815,10.012-5.206c-0.693-1.711-1.896-3.163-3.444-4.157
	c-1.2-0.859-2.464-1.624-3.782-2.29c-0.752-0.336-1.538-0.673-2.378-1.006C400.132,402.572,399.253,402.271,398.354,402.04z"/>
</svg>
